<svg width="402" height="387" viewBox="0 0 402 387" fill="none" xmlns="http://www.w3.org/2000/svg">
<path d="M179.712 288.699C172.322 287.442 165.156 285.486 158.409 282.775C145.617 277.69 134.812 270.844 125.77 262.042C116.729 253.324 109.758 243.07 104.776 231.446C99.9051 219.738 97.3858 207.276 97.3858 194.003C97.3858 180.73 99.9891 168.296 105.392 156.56C110.682 144.936 117.96 134.793 127.198 126.075C136.435 117.469 147.24 110.735 159.809 105.761C172.378 100.788 186.01 98.3008 200.65 98.3008C216.354 98.3008 230.462 100.788 243.143 105.761C255.711 110.735 266.628 117.469 275.754 126.075C284.907 134.793 291.85 144.936 296.748 156.56C301.535 168.268 304.026 180.73 304.026 194.003C304.026 207.276 301.535 219.71 296.748 231.446C291.878 243.07 284.907 253.324 275.754 262.042C266.6 270.872 255.711 277.69 243.143 282.775C238.356 284.648 233.485 286.212 228.279 287.442V386.385C247.929 384.318 266.292 379.651 283.256 372.694C307.973 362.523 329.192 348.635 346.827 331.199C364.378 313.68 378.094 293.142 387.668 269.698C397.213 246.143 402 220.967 402 193.975C402 166.983 396.905 142.114 386.716 118.671C376.527 95.1154 362.503 74.6058 344.643 56.9463C326.784 39.3147 305.566 25.4274 280.96 15.2565C256.327 5.08549 229.538 0 200.65 0C171.762 0 145.785 5.08549 121.263 15.2565C96.854 25.4274 75.6637 39.3147 57.7765 56.9463C39.8053 74.5778 25.7811 95.1154 15.4798 118.671C5.1786 142.114 0 167.206 0 193.975C0 220.744 5.2066 246.143 15.4798 269.698C25.7531 293.142 39.7773 313.68 57.7765 331.199C75.6357 348.635 96.854 362.523 121.263 372.694C139.654 380.266 159.081 385.044 179.656 387V288.671L179.712 288.699Z" fill="#54BB9C"/>
</svg>
